<?xml version="1.0" standalone="no"?>
<!DOCTYPE svg PUBLIC "-//W3C//DTD SVG 20010904//EN"
 "http://www.w3.org/TR/2001/REC-SVG-20010904/DTD/svg10.dtd">
<svg version="1.0" xmlns="http://www.w3.org/2000/svg"
 width="1080.000000pt" height="1080.000000pt" viewBox="0 0 1080.000000 1080.000000"
 preserveAspectRatio="xMidYMid meet">
<metadata>
Created by potrace 1.14, written by Peter Selinger 2001-2017
</metadata>
<g transform="translate(0.000000,1080.000000) scale(0.100000,-0.100000)"
fill="#000000" stroke="none">
<path d="M9197 10604 c-1 -1 -72 -5 -158 -8 -86 -4 -167 -9 -180 -11 -13 -2
-64 -6 -114 -10 -49 -3 -101 -7 -115 -10 -14 -2 -54 -6 -89 -10 -36 -3 -79 -8
-95 -10 -17 -2 -67 -9 -111 -15 -44 -6 -96 -14 -115 -16 -19 -3 -46 -7 -60 -9
-14 -3 -38 -7 -55 -9 -91 -15 -316 -59 -410 -81 -38 -9 -79 -19 -90 -21 -11
-2 -69 -18 -130 -34 -60 -17 -135 -38 -165 -46 -170 -45 -586 -197 -767 -280
-481 -219 -936 -535 -1086 -756 -18 -26 -35 -48 -38 -48 -4 0 0 26 7 58 7 31
16 73 19 92 3 19 9 58 15 85 10 53 19 110 25 160 6 47 16 115 20 133 1 10 6
38 9 65 3 26 9 68 12 95 3 26 8 56 11 67 2 11 6 71 9 134 5 121 -6 176 -48
247 -41 69 -175 142 -296 161 -86 14 -389 6 -496 -13 -12 -1 -46 -6 -76 -9
-30 -3 -71 -7 -90 -10 -19 -2 -57 -7 -84 -11 -27 -3 -58 -8 -70 -10 -11 -2
-38 -6 -61 -10 -91 -13 -349 -67 -471 -99 -660 -172 -1180 -479 -1420 -838
-69 -103 -135 -241 -149 -307 -1 -3 -7 -32 -14 -65 -13 -57 -11 -194 4 -260
24 -111 98 -236 200 -340 116 -117 174 -157 340 -236 136 -65 353 -133 490
-153 22 -4 54 -8 70 -11 55 -9 100 -14 169 -20 l69 -7 -24 34 c-13 18 -26 35
-30 38 -3 3 -23 32 -44 64 -79 125 -148 287 -180 426 -9 41 -19 84 -22 95 -3
11 -7 88 -9 170 -6 281 54 489 203 692 182 249 489 441 891 557 68 20 133 38
145 40 12 3 66 14 121 25 54 12 102 21 107 21 13 0 11 -24 -6 -78 -8 -26 -57
-200 -110 -387 -53 -187 -105 -367 -115 -400 -10 -33 -35 -114 -55 -180 -61
-200 -241 -732 -275 -810 -5 -11 -43 -107 -84 -213 -42 -106 -84 -212 -94
-235 -18 -40 -33 -76 -37 -87 -6 -18 -105 -240 -161 -360 -74 -161 -242 -486
-294 -570 -5 -8 -31 -51 -57 -95 -67 -112 -160 -254 -242 -368 -55 -76 -44
-62 -138 -177 -99 -122 -224 -254 -344 -362 -221 -199 -491 -339 -724 -373
-22 -4 -51 -8 -65 -11 -138 -25 -312 -9 -407 37 -58 28 -138 108 -163 163
-147 323 122 892 559 1186 131 88 314 167 439 190 69 12 224 16 293 6 l44 -6
-45 22 c-64 30 -192 75 -280 99 -79 21 -85 23 -140 33 -19 3 -45 8 -57 10
-106 21 -363 22 -458 3 -16 -4 -46 -9 -65 -12 -19 -4 -55 -11 -80 -16 -25 -6
-52 -12 -60 -14 -125 -29 -328 -116 -449 -195 -256 -166 -452 -403 -541 -656
-101 -287 -56 -557 128 -755 50 -54 132 -123 184 -154 255 -153 485 -209 863
-209 116 0 336 11 386 19 13 2 51 6 84 10 100 10 184 24 303 50 329 72 619
194 897 379 349 232 617 481 901 838 29 37 203 287 218 314 9 16 35 58 58 94
135 212 250 443 407 825 67 161 151 395 229 635 30 91 109 377 117 423 9 46
13 43 21 -13 30 -210 204 -409 469 -534 59 -29 169 -68 225 -81 61 -14 162
-34 195 -39 105 -14 145 -17 145 -11 0 4 -7 19 -15 33 -47 84 -54 254 -15 396
84 311 372 639 782 890 163 100 290 164 493 251 131 56 499 172 605 191 14 3
39 9 55 14 26 7 71 17 163 35 19 3 23 1 17 -13 -59 -150 -208 -549 -294 -792
-23 -63 -48 -131 -56 -150 -8 -19 -57 -156 -110 -305 -52 -148 -99 -279 -104
-290 -5 -11 -35 -92 -66 -180 -32 -88 -77 -216 -102 -285 -77 -214 -213 -601
-239 -680 -13 -41 -27 -82 -31 -90 -3 -8 -7 -19 -8 -25 -3 -10 -153 -427 -199
-549 -55 -148 -62 -269 -24 -371 22 -58 91 -150 147 -197 124 -104 383 -198
641 -233 25 -4 59 -8 77 -11 30 -4 33 -2 42 33 21 78 40 149 51 188 7 22 63
222 126 445 63 223 123 434 134 470 60 203 249 889 249 900 0 3 5 19 11 35 16
40 284 1029 295 1086 2 12 9 36 15 54 6 18 12 41 14 51 2 10 25 102 51 204 26
102 48 193 50 203 3 10 7 27 10 37 61 193 1 386 -158 505 -21 15 -36 30 -34
32 7 6 44 12 130 18 45 4 98 8 117 10 226 22 714 22 1088 0 l62 -3 0 199 c0
151 -3 201 -12 204 -7 2 -38 6 -68 9 -30 3 -69 8 -86 10 -31 5 -114 13 -209
22 -27 2 -72 6 -100 9 -131 12 -679 27 -688 19z"/>
<path d="M4138 3935 c-1 -1 -25 -5 -53 -9 -364 -44 -673 -266 -836 -601 -42
-88 -89 -223 -104 -304 -8 -44 -23 -143 -31 -201 -7 -61 -8 -373 0 -407 2 -11
8 -43 11 -70 75 -527 431 -909 921 -989 68 -11 316 -13 384 -3 72 10 225 47
249 59 9 5 42 20 75 35 129 58 269 177 355 303 83 123 194 388 167 403 -13 8
-432 136 -460 141 -15 2 -22 -6 -31 -42 -48 -182 -150 -335 -271 -406 -86 -51
-143 -66 -254 -69 -132 -4 -235 21 -331 81 -65 40 -153 137 -192 211 -39 75
-81 219 -93 318 -3 33 -8 69 -10 80 -5 25 -5 330 0 370 15 116 21 149 43 225
68 235 222 390 434 436 13 3 62 7 109 10 253 16 459 -118 541 -352 11 -32 22
-60 23 -62 2 -1 75 15 162 37 87 21 194 47 236 57 43 10 82 21 89 24 11 7 -45
172 -81 235 -10 18 -24 43 -32 56 -92 165 -315 332 -519 390 -59 17 -58 16
-104 24 -22 4 -44 10 -49 13 -10 6 -341 13 -348 7z"/>
<path d="M5470 3886 c0 -3 110 -311 230 -646 27 -74 119 -333 205 -575 86
-242 174 -487 195 -545 21 -58 88 -248 151 -423 l113 -317 270 0 271 0 109
308 c60 169 125 350 144 402 19 52 53 149 77 215 23 66 77 217 120 335 78 218
142 397 234 660 28 80 55 154 60 165 5 11 16 40 24 65 18 54 112 318 122 343
7 16 -10 17 -263 17 l-269 0 -19 -57 c-10 -32 -19 -60 -19 -63 -1 -3 -101
-306 -222 -675 -122 -368 -251 -758 -286 -864 -35 -107 -66 -191 -69 -185 -4
5 -20 50 -36 99 -17 50 -79 234 -140 410 -60 176 -139 410 -176 520 -37 110
-70 207 -73 215 -17 44 -186 540 -194 568 l-10 32 -274 0 c-151 0 -275 -2
-275 -4z"/>
</g>
</svg>
